<?xml version="1.0" encoding="utf-8"?>
<!-- Generator: Adobe Illustrator 28.1.0, SVG Export Plug-In . SVG Version: 6.00 Build 0)  -->
<svg version="1.1" id="_迹_1" xmlns="http://www.w3.org/2000/svg" xmlns:xlink="http://www.w3.org/1999/xlink" x="0px" y="0px"
	 viewBox="0 0 4688.1 698.2" style="enable-background:new 0 0 4688.1 698.2;" xml:space="preserve">
<style type="text/css">
	.st0{fill:none;stroke:#FDBFBE;stroke-width:10;stroke-linecap:round;stroke-linejoin:round;}
</style>
<path class="st0" d="M149.6,640.6c-11.1,21.7-17.4,43.7-39.7,51.8c-24.5,5.2-44.9-15.3-60.3-32.9c-67.8-80.5-62.1-195.9,43.8-233.1
	c37.1-13,79.9-13.7,118.4-6.4c209.8,51.6,437.1,128.7,658.5,144.8c79.1,5.7,156.7,5.1,233.1-15.1
	c183.4-50.6,348.2-175.3,454.8-332.9c30.7-47.5,82-143.6,59-198.6c-27.3-50.3-132.1,53.7-172.4,124.9
	c-71.4,115-106.2,255.4-108.6,390.5c0.1,10.2,0.5,20.3,1.4,30.1c30.9,301.5,490-5.2,600.8-189c0.2-0.5,0.1-0.7-0.5-0.1
	c-0.4,0.4-0.7,0.8-1.2,1.4c-6.5,8.4-10.3,16.2-18.3,30.5c-25.5,50.1-48.6,114.7-14.1,164.4c20.6,28.3,59.8,46.8,94.8,39.8
	c90.6-17,106.5-238.6,13.7-248.1c-38.6,0-66.5,43.6-57.4,79.8c8,37.6,42,64.7,75.7,81.9c69.2,34.9,149.6,39.1,225.1,29.5
	c72.6-9.1,155.7-44.1,181.4-117.6c5.4-12.9,7.9-30.4,7.7-7.9c0.3,30.2,2.9,60.8,9.9,90.3c6.1,26.5,31,111.6,64.9,88.1
	c29.9-27.2,42-141,54.9-184.2c5.3-19.2,16.5-63.8,30.9-75.3c8.1-2.7,7.2,28.8,8.8,35.1c16.4,139.1,128.5,136.8,237.8,106.5
	c92.3-26.8,184.1-53.9,269.5-97.2c17.6-10,41.1-22.6,43-41.6c-2.7-27.2-49.9-36.8-73.1-36.3c-146.1,9.4-213.2,308.8-34,313.9
	c60.5,2.8,124.7-18.5,179.9-42.9c74.8-32.3,176.7-99.9,257.2-156.2c247.5-177.4,568.9-56.2,855.2,19.4
	c71.4,17.1,146.5,34.4,214.4,3.3c69.1-29.1,126.9-104.2,117.7-181.7c-3.7-32.3-24-62.8-56.8-68.3c-34-6.2-65.4,17.1-81.4,45.5
	c-6.5,10.1-13.4,28.3-21.6,33.1c-5,1.8-7.4-1.3-11.4-5.1c-6.6-7.9-14.7-19.2-22.3-28.1c-15.4-18.5-38.1-31.8-62.6-31.6
	c-23.2,0.2-44.4,10.2-55.8,29.1c-35.3,79.3,99,171.6,143.6,250.3c29.6,49.8,13.9,111.1-5.6,162"/>
</svg>
