<?xml version="1.0" encoding="utf-8"?>
<!-- Generator: Adobe Illustrator 28.3.0, SVG Export Plug-In . SVG Version: 6.00 Build 0)  -->
<svg version="1.1" id="레이어_1" xmlns="http://www.w3.org/2000/svg" xmlns:xlink="http://www.w3.org/1999/xlink" x="0px"
     y="0px" viewBox="0 0 595.28 841.89" style="enable-background:new 0 0 595.28 841.89;" xml:space="preserve">
<style type="text/css">
	.st0{fill:none;stroke:#F7C7C8;stroke-width:3;stroke-linecap:round;stroke-linejoin:round;stroke-miterlimit:10;}
</style>
    <path class="st0" d="M521.64,295.37c0,6.2-0.45,12.29-1.3,18.22c-1.12,7.75-2.94,15.23-5.39,22.36c-0.02,0.05-0.04,0.1-0.05,0.15
	c-1.04,2.98-2.2,5.95-3.48,8.92c-0.03,0.07-0.06,0.13-0.09,0.2c-40.1,93.07-190.24,181.17-190.24,181.17s-150.15-88.1-190.24-181.17
	c-0.03-0.07-0.06-0.13-0.09-0.2c-1.28-2.97-2.44-5.94-3.48-8.92c-0.02-0.05-0.04-0.1-0.05-0.15c-2.45-7.13-4.27-14.61-5.39-22.36
	c-0.86-5.93-1.3-12.01-1.3-18.22c0-62.28,44.89-112.76,100.28-112.76c0.22,0,0.43,0,0.65,0c67.15,0.42,99.63,65.85,99.63,65.85
	s32.48-65.43,99.63-65.85c0.22,0,0.43,0,0.65,0C476.75,182.62,521.64,233.1,521.64,295.37L521.64,295.37z"/>
</svg>
