<svg version="1.1" id="Layer_1" xmlns="http://www.w3.org/2000/svg" xmlns:xlink="http://www.w3.org/1999/xlink" x="0px" y="0px"
	 width="100%" viewBox="0 0 620 133" enable-background="new 0 0 620 133" xml:space="preserve">
<path fill="#FFFFFF" opacity="1.000000" stroke="none" 
	d="
M1.359991,82.098969 
	C1.000000,56.350510 1.074651,30.700533 0.908103,5.052124 
	C0.886624,1.744365 1.410615,0.891951 4.943281,0.897528 
	C88.553757,1.029540 172.164474,1.000000 255.775162,1.000000 
	C361.537659,1.000000 467.300171,1.000000 573.531372,1.000000 
	C574.307739,1.938827 573.843811,2.661531 573.194092,3.180038 
	C560.161255,13.581094 552.676392,28.043932 545.442810,42.428284 
	C540.556335,52.145397 532.672241,57.941063 523.977112,63.292221 
	C522.701233,64.077438 521.237549,64.531815 519.751465,64.782173 
	C515.086060,65.568161 511.960022,62.059849 513.270325,57.532040 
	C513.550659,56.563240 513.952759,55.594955 514.622864,54.874741 
	C518.473267,50.736599 519.799438,45.759277 519.510071,39.813049 
	C516.154419,42.998943 515.070923,47.187027 513.242676,50.934364 
	C507.603271,62.492821 498.720459,71.046165 487.995392,77.799957 
	C485.701599,79.244438 482.918732,79.931137 480.501495,77.928146 
	C478.274567,76.082870 478.648773,73.422813 479.051697,70.942360 
	C480.313599,63.173409 483.895386,57.698292 490.741425,52.260662 
	C477.958130,56.098236 465.030396,58.995312 451.566528,58.900261 
	C456.369690,59.788239 461.162445,59.986172 465.957611,59.331997 
	C469.586243,58.836960 473.201904,58.191189 476.836639,57.781406 
	C480.548523,57.362934 481.558685,58.642849 479.591217,61.626293 
	C472.088470,73.003105 463.745056,83.633797 450.087555,88.122719 
	C438.545441,91.916382 431.905792,86.973389 431.675964,74.988831 
	C431.534088,67.590065 433.790680,60.823383 436.764679,54.297226 
	C443.113708,40.364994 451.267578,27.688934 463.649780,18.230461 
	C469.821960,13.515626 476.385010,9.613529 484.524628,9.753428 
	C491.592468,9.874903 495.656891,15.219670 493.440460,21.912256 
	C491.037781,29.167187 487.444244,35.694477 479.917786,39.000359 
	C479.308838,39.267822 478.701385,39.576252 478.187805,39.994965 
	C477.343781,40.683029 475.843781,41.266964 476.758209,42.650257 
	C477.409027,43.634792 478.642120,43.071739 479.471680,42.554520 
	C487.900787,37.299355 494.042114,30.218929 495.513123,20.150017 
	C496.742188,11.737202 490.947327,6.555873 482.354401,7.794786 
	C472.172668,9.262771 463.891724,14.528156 456.854004,21.593512 
	C445.151642,33.341824 436.607056,47.137211 431.847595,63.126217 
	C430.166595,68.773376 429.454193,74.548035 430.395081,80.411903 
	C431.532318,87.499573 435.104919,90.423637 442.225525,90.733681 
	C453.969055,91.245010 462.376892,84.992683 470.099670,77.280281 
	C471.153931,76.227463 471.902283,74.876511 473.093231,73.938080 
	C474.996552,72.438271 476.191498,72.668465 477.123901,75.145599 
	C479.241455,80.771347 482.492737,82.157646 488.299011,79.765541 
	C494.115753,77.369141 498.551514,73.039589 502.726105,68.479393 
	C504.072693,67.008423 505.206299,65.337776 506.789185,64.089043 
	C507.999146,63.134449 509.448181,62.099789 510.816101,63.387764 
	C516.695862,68.923698 522.409912,66.329308 528.270386,63.380264 
	C531.600342,61.704620 533.785400,63.164970 533.792358,66.847412 
	C533.795593,68.536903 533.153076,70.109367 532.623108,71.686241 
	C530.871155,76.899460 529.181885,82.127701 527.966492,87.501358 
	C527.296814,90.462303 527.050476,93.454681 527.424500,96.438980 
	C527.929504,100.468216 531.028198,101.724197 534.208740,99.181870 
	C537.435181,96.602837 538.518677,92.946312 538.670044,88.979973 
	C538.892822,83.140518 538.616455,77.361610 537.356812,71.597633 
	C535.942566,65.126579 537.039368,63.560680 543.518555,62.322876 
	C549.629883,61.155361 555.395142,59.085453 560.995850,56.455086 
	C562.176086,55.900784 563.466003,54.957485 564.715271,55.951679 
	C566.233887,57.160183 565.349304,58.724915 564.800171,60.067711 
	C562.781982,65.002541 560.690186,69.910690 558.941772,74.947037 
	C558.320374,76.736725 557.086548,78.564011 558.269043,80.665993 
	C560.532532,80.452408 560.659485,78.683578 561.070557,77.091148 
	C564.209106,64.933121 568.572937,53.353161 576.956787,43.690331 
	C577.731445,42.797516 578.556885,41.893375 578.569641,40.667686 
	C578.640320,33.896450 582.940186,28.963511 585.979736,23.487791 
	C587.395630,20.936951 589.802490,19.946432 592.551453,19.467957 
	C601.740906,17.868490 610.931458,16.317366 620.658203,16.839783 
	C621.000000,54.477016 620.943970,91.954254 621.089539,129.430695 
	C621.103577,133.047943 620.485229,134.106873 616.574402,134.104523 
	C419.362091,133.985535 222.149704,134.000000 24.468658,134.000000 
	C24.348677,131.251419 26.820265,131.585678 28.519165,131.115662 
	C39.364906,128.115005 48.703320,122.707718 56.337360,114.375565 
	C59.223190,111.225838 61.149940,107.581337 62.225864,103.524147 
	C64.056068,96.622650 62.391541,91.803749 56.505184,88.039909 
	C53.217869,85.937943 53.250042,84.221252 56.148258,82.107315 
	C60.120968,79.209641 62.817917,75.173286 65.800354,71.401062 
	C67.878357,68.772774 69.417618,65.816399 70.229752,62.534988 
	C72.813202,52.096531 67.847664,45.641197 57.077911,45.262138 
	C38.594971,44.611607 25.328773,54.365025 13.602083,67.079613 
	C10.566308,70.371124 7.925203,74.022652 5.749173,77.989807 
	C4.807074,79.707367 3.852387,81.555588 1.359991,82.098969 
z"/>
<path fill="#161616" opacity="1.000000" stroke="none" 
	d="
M621.000000,16.625000 
	C615.688354,19.061865 609.984863,17.596817 604.533142,18.904789 
	C599.819397,20.035698 594.848877,20.071558 590.104492,21.107328 
	C586.452881,21.904530 585.507935,25.966789 584.427979,28.610460 
	C582.793030,32.612522 577.336121,35.880947 580.729370,41.453999 
	C580.883545,41.707230 579.600769,42.948147 578.876038,43.606598 
	C569.710327,51.933857 567.501892,64.026024 562.317200,74.492432 
	C561.748230,75.640984 562.737732,77.556992 562.113586,79.332542 
	C561.202881,81.923103 559.666504,83.729492 557.159912,82.820755 
	C554.831055,81.976471 556.050903,79.620796 556.616455,77.819695 
	C558.908264,70.522003 561.919739,63.498535 565.551758,55.484123 
	C556.804626,60.150894 548.669983,63.075363 539.851257,64.199303 
	C536.788879,64.589607 537.553650,68.327126 538.183350,70.165009 
	C540.440857,76.754448 540.047607,83.478935 539.952698,90.192329 
	C539.892517,94.448288 537.918335,97.912437 534.767029,100.836868 
	C532.839966,102.625122 530.628784,102.274231 528.716675,101.763626 
	C526.742920,101.236572 526.080688,99.344810 525.919861,97.062294 
	C525.209595,86.986229 529.400757,78.013542 532.218445,68.782059 
	C532.909058,66.519524 532.880005,64.746788 531.637695,63.494102 
	C530.136841,61.980675 529.415649,64.634651 528.110779,65.044548 
	C525.991699,65.710228 524.033936,66.886414 521.917480,67.564148 
	C516.531128,69.289001 512.967285,67.976700 509.588226,63.034763 
	C504.603882,67.258972 501.302277,73.083740 495.839905,76.836884 
	C492.735199,78.970070 489.735962,81.333405 486.073517,81.906769 
	C478.242859,83.132675 476.443298,81.475449 475.595764,72.701035 
	C471.144135,78.529785 466.255188,83.163239 460.565857,86.983681 
	C453.687775,91.602448 446.065277,92.817619 438.153381,91.881012 
	C432.270203,91.184578 427.538300,82.074043 428.328339,75.160065 
	C430.836334,53.212643 441.484131,35.451954 456.560760,20.046188 
	C463.841431,12.606565 472.826569,7.896760 483.154358,6.038288 
	C491.989502,4.448416 499.433990,13.295712 496.751648,22.490101 
	C494.052643,31.741459 488.209076,38.797188 480.122162,43.943634 
	C478.360474,45.064762 475.880615,46.274742 474.491119,43.775272 
	C472.904724,40.921547 475.402069,39.700699 477.592957,38.834641 
	C485.821136,35.581974 489.918793,28.882435 492.518494,20.979494 
	C494.232452,15.769289 490.724854,11.205259 485.240387,10.968536 
	C477.087982,10.616660 470.442993,14.343244 464.527557,19.124336 
	C448.676422,31.935781 438.562775,48.592670 433.388031,68.220665 
	C432.331177,72.229393 432.556549,76.549553 433.299408,80.605042 
	C434.199341,85.517929 437.701294,87.925194 442.714783,88.001648 
	C451.036133,88.128540 457.636627,84.104507 463.489746,78.853607 
	C466.769531,75.911285 469.874481,72.735535 472.634735,69.149971 
	C475.209717,65.805084 477.521240,62.316166 480.579651,58.341702 
	C470.830231,60.154610 461.747375,61.538208 452.513855,61.003769 
	C450.769653,60.902817 448.221558,61.492973 448.216949,59.005157 
	C448.212341,56.518200 450.761993,56.943615 452.502533,57.020538 
	C465.225464,57.582829 477.424896,54.929821 489.324860,50.799435 
	C491.355957,50.094463 493.127319,49.531525 493.784393,51.629185 
	C494.293701,53.255203 492.410858,54.326466 490.818909,54.991493 
	C484.746246,57.528282 478.702972,68.948692 480.020325,75.437271 
	C480.790558,79.230858 483.696442,78.395981 485.856537,77.530289 
	C489.138245,76.215080 492.207794,74.335907 494.754089,71.754387 
	C499.861786,66.575989 505.558716,61.846729 509.553802,55.765629 
	C512.329590,51.540443 513.878052,46.513702 516.030579,41.870926 
	C516.571106,40.705189 517.196411,39.527828 518.023682,38.562202 
	C518.677063,37.799454 519.326477,36.333530 520.792603,37.366058 
	C522.020874,38.231102 522.037537,39.305935 521.707581,40.822144 
	C520.413513,46.767830 519.328003,52.647522 514.545044,57.170319 
	C513.311096,58.337162 513.393982,60.811127 515.050659,62.589096 
	C516.533569,64.180634 518.091492,64.413574 519.943726,63.561695 
	C529.349854,59.235722 538.074768,53.949158 542.913696,44.323853 
	C549.387146,31.447155 556.627930,19.078791 565.710876,7.866929 
	C567.862305,5.211230 570.769836,3.292049 573.908813,1.340167 
	C576.041687,1.000000 578.083313,1.000000 580.562500,1.000000 
	C584.545532,3.715027 583.324890,7.237009 582.434326,10.552182 
	C581.740601,13.134250 580.050598,15.285383 578.357788,17.617945 
	C582.684570,17.708969 585.494202,15.735161 587.616028,12.292805 
	C589.445129,9.325222 591.302612,6.350614 593.526245,3.652378 
	C595.301025,1.498901 597.879395,0.454420 600.062012,2.240238 
	C602.112549,3.917941 600.524719,6.192468 599.315857,8.028017 
	C597.979431,10.057237 596.257935,11.838464 594.853088,14.468209 
	C603.721863,13.700831 612.024780,11.278971 620.721680,13.768427 
	C621.000000,14.750000 621.000000,15.500000 621.000000,16.625000 
z"/>
<path fill="#FFFFFF" opacity="1.000000" stroke="none" 
	d="
M9.069698,133.634491 
	C1.000000,134.000000 1.000000,134.000000 1.000000,126.130783 
	C0.999999,113.732964 1.000000,101.335136 1.000000,88.468658 
	C3.875459,86.879349 5.007128,84.404755 6.400834,81.842613 
	C15.328486,65.430367 28.017118,53.317894 46.322701,47.854454 
	C50.055874,46.740261 53.869671,46.544598 57.705902,46.811855 
	C66.974983,47.457581 71.680618,54.910789 68.098785,63.407005 
	C64.499878,71.943703 58.360531,78.564819 50.948322,83.786720 
	C46.719700,86.765785 41.218681,85.466858 36.338978,85.419510 
	C33.555706,85.392509 34.989811,82.521713 35.680309,81.058174 
	C39.310486,73.363907 43.615547,66.051628 48.651878,59.183472 
	C49.499901,58.027004 50.796089,57.117638 50.828465,55.343952 
	C48.365799,55.370026 47.661922,57.305592 46.632179,58.661419 
	C41.371845,65.587540 37.214329,73.192375 33.456726,80.999527 
	C31.631369,84.792084 29.255243,87.475563 25.093170,88.931038 
	C18.992685,91.064362 18.583845,93.008484 22.311054,98.080765 
	C24.348761,100.853836 21.237705,108.772934 16.962685,111.213509 
	C14.362524,112.697922 11.596930,113.900932 9.236615,115.779984 
	C5.918530,118.421494 4.206438,121.730072 4.235551,126.136261 
	C4.260031,129.841187 7.635505,130.820511 9.069698,133.634491 
z"/>
<path fill="#161616" opacity="1.000000" stroke="none" 
	d="
M9.466117,134.000000 
	C0.576521,128.316452 0.724708,119.679039 9.693635,113.930237 
	C14.756710,110.684959 20.600035,108.577217 21.945936,101.621033 
	C22.270025,99.946007 22.310966,99.099503 20.682468,98.209221 
	C17.341255,96.382584 17.030113,92.495750 19.868929,90.037697 
	C20.101679,89.836166 20.454771,89.742470 20.768427,89.670029 
	C32.543194,86.950813 33.771156,75.501373 39.148438,67.485443 
	C42.024143,63.198612 44.912979,58.920101 47.846249,54.672615 
	C49.019787,52.973293 51.080250,52.090828 52.490547,53.410156 
	C53.927662,54.754578 52.868538,56.581219 51.490700,58.088585 
	C44.347786,65.903023 39.957962,75.396278 34.803761,85.402168 
	C39.295670,83.594627 43.240509,84.171387 47.135418,83.974075 
	C52.300293,83.712440 54.629734,78.975220 57.897129,76.157394 
	C61.666142,72.906967 64.579041,68.367325 66.815392,63.611473 
	C70.611450,55.538708 66.183998,48.312424 57.316940,47.956825 
	C44.502422,47.442928 34.020527,52.927689 24.796881,60.887039 
	C16.892651,67.707832 9.713079,75.344696 6.016284,85.536446 
	C5.373615,87.308235 4.705633,89.903618 1.345045,88.084488 
	C1.000000,86.285645 1.000000,84.571281 1.000000,82.428467 
	C5.633106,77.869049 7.744104,71.933128 11.826637,67.286888 
	C24.514759,52.846813 39.063538,42.827557 59.286236,43.992653 
	C68.970116,44.550579 74.742661,53.184441 71.493576,62.939625 
	C68.719849,71.267593 63.563202,78.031807 56.405193,83.207748 
	C55.605141,83.786278 54.888680,84.480415 53.878735,85.336983 
	C57.756470,87.007088 61.130100,88.548813 62.820511,92.372124 
	C64.509239,96.191643 64.492386,100.105759 63.527363,103.909752 
	C61.078049,113.564606 53.961475,119.815514 46.130676,124.806557 
	C39.558762,128.995224 32.320335,132.429337 24.133041,133.623474 
	C19.310745,134.000000 14.621490,134.000000 9.466117,134.000000 
z"/>
<path fill="#FFFFFF" opacity="1.000000" stroke="none" 
	d="
M621.000000,13.523338 
	C611.471313,13.526093 602.045593,14.567789 591.434937,16.595339 
	C594.422852,12.592448 596.574036,9.506368 598.953369,6.607586 
	C600.173401,5.121244 600.704651,3.355180 599.391968,2.297485 
	C598.141174,1.289668 596.193298,1.852924 595.075439,3.407909 
	C593.476746,5.631774 591.509216,7.719021 590.465210,10.188451 
	C587.642700,16.864689 582.430054,19.476002 575.192444,19.900520 
	C578.938171,14.287327 584.310486,9.342051 581.126587,1.391576 
	C593.392090,1.000000 605.784424,1.043641 618.175903,0.956899 
	C620.233215,0.942498 621.378845,0.968620 621.080750,3.637723 
	C620.734436,6.738378 621.000000,9.907354 621.000000,13.523338 
z"/>
<path fill="#161616" opacity="1.000000" stroke="none" 
	d="
M202.486130,115.797806 
	C198.247589,112.486107 198.157288,108.686783 202.283585,104.304550 
	C204.859772,101.568565 207.719971,99.005013 210.804352,96.872688 
	C213.262634,95.173203 214.443069,93.197815 213.947556,90.423195 
	C213.508499,87.964569 215.096970,85.820984 214.839142,82.605003 
	C210.507553,87.330879 205.923340,90.691414 201.402756,94.142731 
	C199.383606,95.684288 197.030563,96.321754 194.775757,96.882828 
	C189.734131,98.137360 186.103760,95.101120 186.023315,89.893936 
	C185.959946,85.793152 185.760529,81.687393 186.904663,77.628731 
	C187.183197,76.640678 187.806335,74.882431 186.179886,74.130341 
	C184.933731,73.554092 184.085083,74.529701 183.156723,75.280609 
	C176.768906,80.447472 172.571854,87.373222 168.002106,94.001099 
	C164.974365,98.392456 161.817078,102.705269 159.017578,107.238388 
	C157.740860,109.305710 156.029449,109.222267 154.331421,108.920250 
	C151.745117,108.460266 152.860962,106.078461 153.112762,104.877357 
	C154.201477,99.683998 156.216476,94.748131 158.538330,89.993523 
	C163.910034,78.993645 169.234985,67.962730 176.046509,57.158970 
	C170.393082,56.766056 165.502258,58.607315 160.513519,59.334145 
	C158.312943,59.654758 157.786316,62.716583 156.677124,64.689781 
	C153.846786,69.724869 149.977997,74.292175 149.966660,80.524811 
	C149.965866,80.958771 149.795135,81.535294 149.490509,81.805084 
	C140.349792,89.900200 138.743027,101.980118 133.517487,112.137611 
	C132.680008,113.765526 133.863373,115.970703 133.005173,117.890015 
	C132.011871,120.111465 130.382050,121.744766 128.073547,120.835434 
	C126.066765,120.044945 126.835312,117.769608 127.394348,116.157639 
	C130.655563,106.754196 134.356339,97.528740 139.217514,88.630264 
	C138.544113,88.355324 138.116180,88.010567 137.720215,88.044014 
	C129.639984,88.726570 128.504456,88.252716 127.137108,80.356102 
	C126.275948,75.382797 124.059555,77.113411 121.924957,78.651093 
	C113.979919,84.374413 107.839104,91.872002 102.118935,99.697685 
	C101.138474,101.039047 100.455368,103.020996 98.792160,102.810272 
	C96.373817,102.503860 97.260300,99.931976 96.743645,98.200409 
	C91.899147,100.486115 88.273903,104.619591 82.929939,106.137100 
	C73.225899,108.892723 68.084129,104.928940 70.101746,95.313187 
	C71.393448,89.157036 74.492096,83.587311 77.535454,78.110367 
	C78.029823,77.220673 78.966103,74.990295 80.966171,76.532814 
	C82.449829,77.677048 82.052414,78.877678 81.238838,80.425491 
	C78.561310,85.519424 75.660072,90.537186 74.336311,96.232994 
	C73.880768,98.193062 73.499001,100.047142 75.205635,101.729401 
	C76.931648,103.430748 78.442429,103.114868 80.523834,102.184685 
	C90.214493,97.853851 98.578461,92.026993 103.821983,82.508980 
	C105.374763,79.690384 106.617508,76.701813 108.027687,73.803482 
	C108.773834,72.269936 109.940331,71.450241 111.628311,72.274261 
	C113.571007,73.222603 112.684227,74.489197 112.063766,75.930359 
	C111.154617,78.042053 109.113365,79.932030 110.445427,83.011993 
	C114.365791,79.117783 118.094589,75.132339 123.144981,73.061104 
	C127.329666,71.344894 129.705673,72.803680 131.016556,77.112671 
	C131.787994,79.648438 130.556152,83.717194 134.872375,83.905426 
	C138.795059,84.076500 141.956100,82.290848 143.888489,78.551949 
	C146.833618,72.853569 149.961304,67.249542 153.432053,60.827175 
	C145.885330,62.813305 139.005859,64.625648 132.124878,66.432220 
	C131.343262,66.637436 130.553970,66.958878 129.766708,66.963440 
	C128.570084,66.970398 126.996887,67.546043 126.965729,65.283844 
	C126.942604,63.604748 127.539246,63.311291 129.167145,62.902531 
	C137.271576,60.867535 145.225739,58.188290 153.383026,56.434654 
	C156.184128,55.832478 157.558472,54.316418 158.865875,52.467331 
	C161.278061,49.055744 163.366562,45.416710 165.636963,41.902832 
	C166.752563,40.176216 168.789536,39.133247 170.287201,40.214973 
	C171.946487,41.413452 171.003220,43.326836 169.709000,44.892944 
	C167.455887,47.619392 165.412430,50.519104 163.210876,53.439266 
	C173.458267,54.978390 178.004608,52.995663 183.648514,44.884743 
	C185.687332,41.954746 187.923782,39.159088 190.136032,36.354176 
	C191.459167,34.676579 193.297012,34.359177 194.968842,35.543339 
	C197.356888,37.234840 195.131927,39.042809 194.283493,40.031506 
	C191.111282,43.728046 187.105225,46.745720 185.287903,52.001156 
	C186.863892,52.001156 188.273972,51.985523 189.683502,52.006107 
	C190.808624,52.022537 192.176361,51.728638 191.982788,53.637428 
	C191.847839,54.968082 190.991150,56.190281 189.842453,55.900993 
	C182.131485,53.959072 179.604156,59.424767 176.807266,64.675270 
	C173.131073,71.576500 168.906891,78.199532 166.352798,85.786758 
	C170.096069,84.270973 171.596451,80.597046 174.007309,77.839447 
	C176.704987,74.753777 179.231522,71.563217 183.231476,69.917099 
	C187.819839,68.028839 190.557693,69.772842 191.055664,74.776497 
	C191.489395,79.134521 189.735291,83.216110 189.961807,87.534599 
	C190.233856,92.721069 192.270370,94.161613 196.712418,91.664757 
	C203.780991,87.691559 209.804642,82.332336 215.029037,76.213181 
	C216.680161,74.279289 217.372864,71.313751 217.928177,68.698051 
	C219.526291,61.170361 227.616791,60.036304 233.982468,64.525002 
	C235.249237,65.418251 235.474533,66.759407 234.465485,67.993591 
	C233.308975,69.408165 232.077805,69.277336 230.595428,68.165092 
	C228.865616,66.867172 227.263062,65.060951 224.513611,66.697304 
	C223.379852,67.372055 222.483154,68.342857 222.511047,69.098206 
	C222.800064,76.924728 216.882858,83.513283 218.351074,91.781815 
	C228.415451,85.558594 238.565491,79.402824 248.573425,73.024132 
	C251.769882,70.986832 252.483429,66.983551 254.421219,63.945274 
	C256.912781,60.038757 258.771027,55.728340 261.260040,50.897121 
	C253.897491,52.819908 247.029999,54.614136 240.161911,56.406078 
	C239.380585,56.609940 238.593567,56.969234 237.813309,56.958469 
	C236.644745,56.942348 235.007324,57.618656 234.973038,55.329636 
	C234.948868,53.716488 235.430252,53.317158 237.120361,52.898022 
	C245.230850,50.886673 253.182846,48.183155 261.347778,46.473503 
	C264.188446,45.878693 265.525208,44.342693 266.833374,42.499943 
	C269.251770,39.093269 271.335358,35.450466 273.606873,31.937355 
	C274.715881,30.222166 276.713837,29.134621 278.249908,30.202932 
	C279.962891,31.394289 279.048248,33.282448 277.739868,34.859077 
	C275.479309,37.583080 273.439392,40.490192 271.056702,43.652592 
	C275.280396,44.899578 279.128662,43.321915 282.690247,42.708107 
	C287.517029,41.876251 292.236664,42.330635 296.988312,42.057529 
	C298.037323,41.997242 299.954803,41.125305 299.953949,43.447090 
	C299.953278,45.298859 298.779907,46.069653 297.005859,45.996437 
	C290.079956,45.710613 283.328979,47.444500 276.499542,47.837273 
	C269.680420,48.229462 265.390045,51.149990 262.985992,57.265079 
	C261.306244,61.537777 257.014496,65.015884 258.956879,70.430275 
	C259.139252,70.938637 258.869507,71.498550 258.183411,71.999298 
	C247.844818,79.544716 246.895309,92.376556 241.346298,102.625099 
	C240.849121,103.543350 241.494049,106.153320 240.940063,107.881310 
	C240.199066,110.192650 238.358963,111.752815 236.059891,110.832008 
	C234.077377,110.037994 234.836761,107.762169 235.399475,106.143280 
	C238.338028,97.689133 241.549210,89.342522 246.530518,80.046227 
	C238.263275,84.977371 231.482040,89.877228 224.007294,93.231796 
	C217.017166,96.368881 216.657867,102.748383 214.311707,108.284035 
	C211.756104,114.313889 209.352646,116.006325 202.486130,115.797806 
z"/>
<path fill="#161616" opacity="1.000000" stroke="none" 
	d="
M365.948853,81.000526 
	C359.110168,83.239090 355.643799,81.286331 353.739868,74.277000 
	C348.858551,77.329430 344.956329,81.832550 339.151764,83.438828 
	C333.636292,84.965126 330.508514,83.101112 331.125793,77.467995 
	C331.822693,71.108238 333.485596,64.854332 334.846802,57.954163 
	C330.318665,59.193810 327.220978,62.339615 324.426880,65.308472 
	C318.604889,71.494576 313.348633,78.211342 307.803528,84.661545 
	C306.858246,85.761101 305.745636,86.635246 304.305664,87.294685 
	C301.179810,88.726173 299.562805,88.427956 300.010284,84.591125 
	C300.451477,80.808289 298.991577,80.154610 295.924255,82.010170 
	C294.776825,82.704300 293.549438,82.878448 292.220062,83.067162 
	C287.790070,83.696014 283.320709,83.786385 280.081726,88.123291 
	C277.828796,91.139915 273.450165,90.820740 270.420258,89.576332 
	C267.153839,88.234795 266.290466,84.433723 267.074707,81.032768 
	C268.373901,75.398567 269.665283,69.799248 274.816864,65.853470 
	C276.755005,64.368973 277.688904,61.380619 279.838745,59.704868 
	C282.549530,57.591850 285.499176,57.285034 288.435150,59.171204 
	C291.365601,61.053802 292.511841,64.196663 291.811798,67.250801 
	C290.925903,71.115814 290.604370,75.249413 287.818512,79.072289 
	C296.179138,78.838821 301.874664,75.022133 305.993225,68.690666 
	C308.803802,64.369934 311.583588,59.973591 313.776672,55.327602 
	C315.093903,52.537106 317.294373,52.443825 319.011719,53.183289 
	C321.712097,54.346027 319.440643,56.726448 318.638428,57.538063 
	C314.966827,61.252735 315.473083,66.794136 311.448669,71.264977 
	C314.779999,70.481293 315.751556,68.616219 317.016602,67.021210 
	C321.010040,61.986244 325.393433,57.418755 331.521240,54.885853 
	C336.535034,52.813442 339.511108,54.506031 338.888062,59.827621 
	C338.252625,65.255165 336.831451,70.606171 335.488525,75.923569 
	C335.187744,77.114571 334.804321,78.017845 335.579102,79.063805 
	C336.767639,80.668373 338.325684,79.189186 338.928772,78.848373 
	C345.585266,75.086830 352.195679,71.128456 355.968567,64.063416 
	C358.614563,59.108604 361.897125,54.888832 367.090302,52.357861 
	C371.732635,50.095364 375.836456,50.490662 377.444611,54.047768 
	C379.257507,58.057873 376.178223,60.583485 373.696289,63.009708 
	C370.427246,66.205383 366.152222,67.539429 361.814972,67.881577 
	C357.772736,68.200462 358.235168,70.802841 357.994476,73.342384 
	C357.673126,76.733345 359.720276,77.011642 362.388672,77.043747 
	C368.784729,77.120667 373.758545,73.456963 378.766968,70.474945 
	C384.876434,66.837402 390.842865,62.774292 395.881866,57.602600 
	C397.081909,56.370922 398.319244,55.072571 400.084320,56.616768 
	C402.325043,58.577110 399.955353,59.511589 398.959198,60.462574 
	C389.488373,69.503937 378.950043,76.884727 365.948853,81.000526 
z"/>
<path fill="#161616" opacity="1.000000" stroke="none" 
	d="
M524.930786,31.950813 
	C523.213989,29.878120 524.625977,24.461845 526.648376,24.129599 
	C527.150391,24.047129 527.860779,24.460287 528.288940,24.850286 
	C529.433899,25.893156 529.355591,27.451542 528.728088,28.478777 
	C527.903564,29.828671 526.481079,30.813297 524.930786,31.950813 
z"/>
<path fill="#161616" opacity="1.000000" stroke="none" 
	d="
M84.930817,70.950806 
	C83.213997,68.878166 84.625862,63.461945 86.648346,63.129639 
	C87.150345,63.047157 87.860703,63.460320 88.288887,63.850307 
	C89.433884,64.893143 89.355522,66.451530 88.728127,67.478745 
	C87.903641,68.828644 86.481133,69.813286 84.930817,70.950806 
z"/>
<path fill="#FFFFFF" opacity="1.000000" stroke="none" 
	d="
M544.189697,51.455791 
	C551.621094,42.388760 560.917786,35.776176 568.787781,27.681242 
	C572.380859,23.985405 577.473633,25.049942 581.759399,22.770714 
	C574.249023,42.088673 563.927429,57.654995 540.951111,59.372738 
	C541.934265,56.946461 542.978577,54.369133 544.189697,51.455791 
z"/>
<path fill="#FFFFFF" opacity="1.000000" stroke="none" 
	d="
M573.832092,6.671840 
	C575.359863,6.291200 576.431885,4.391995 577.531067,5.281805 
	C579.052124,6.513133 577.587036,8.158973 576.906799,9.207957 
	C571.435669,17.645308 569.442261,22.820574 558.202271,24.737534 
	C563.724426,18.394630 566.668884,11.066797 573.832092,6.671840 
z"/>
<path fill="#FFFFFF" opacity="1.000000" stroke="none" 
	d="
M535.999634,80.540276 
	C535.959717,85.201164 536.556335,89.521622 534.745911,93.522224 
	C533.922852,95.341026 533.190369,97.494438 530.267273,97.999359 
	C529.288513,90.975723 531.308960,84.693306 533.941589,78.514214 
	C534.143860,78.039330 533.948425,77.022652 534.954346,77.544601 
	C535.945435,78.058899 536.088989,79.068382 535.999634,80.540276 
z"/>
<path fill="#FFFFFF" opacity="1.000000" stroke="none" 
	d="
M553.007202,35.951569 
	C554.375488,30.155691 555.359009,29.206223 560.057434,29.190895 
	C557.696045,31.579254 555.531860,33.768089 553.007202,35.951569 
z"/>
<path fill="#FFFFFF" opacity="1.000000" stroke="none" 
	d="
M36.643913,124.751724 
	C29.296070,127.984566 22.123274,130.303192 14.332341,130.014618 
	C10.812101,129.884232 7.727034,129.016571 7.068431,125.049393 
	C6.641787,122.479462 12.070166,116.363205 14.578465,116.181335 
	C14.975615,116.152534 15.490430,116.295006 15.786812,116.549408 
	C19.295942,119.561302 19.506580,119.644318 20.924198,115.421432 
	C21.793480,112.831963 23.830280,112.597847 25.769728,112.058578 
	C26.850382,111.758110 28.083546,111.966354 29.245768,112.007629 
	C31.395315,112.083992 33.568653,112.063057 34.890064,110.052109 
	C35.267567,109.477615 35.238171,107.912392 34.864773,107.689224 
	C32.933395,106.534920 30.828388,106.633446 28.803005,107.636520 
	C27.367832,108.347290 25.906570,107.932014 24.439196,107.849808 
	C25.504755,102.012596 27.946520,97.970566 34.568432,96.790718 
	C38.530685,96.084763 42.572460,93.935524 45.787186,91.422684 
	C49.448063,88.561104 52.477310,88.740196 55.711605,91.267326 
	C60.010509,94.626312 60.926842,98.754852 59.210281,103.336624 
	C55.202850,114.033096 46.563354,119.759460 36.643913,124.751724 
z"/>
<path fill="#FFFFFF" opacity="1.000000" stroke="none" 
	d="
M39.482605,89.556427 
	C37.479488,90.847351 35.594269,91.763023 33.723827,92.707939 
	C32.924843,93.111565 31.735149,93.280136 31.523426,92.618721 
	C31.319199,91.980736 31.905792,90.709831 32.534363,90.254265 
	C34.649780,88.721115 37.127426,88.762978 39.482605,89.556427 
z"/>
<path fill="#FFFFFF" opacity="1.000000" stroke="none" 
	d="
M207.101044,111.388306 
	C204.264954,112.536850 203.300003,111.664116 204.387466,109.141945 
	C205.716599,106.059319 208.048523,103.980492 211.461426,102.960419 
	C211.140472,106.304237 209.989792,109.067390 207.101044,111.388306 
z"/>
<path fill="#FFFFFF" opacity="1.000000" stroke="none" 
	d="
M279.230560,71.583710 
	C279.398560,67.832184 279.581696,64.481430 283.470856,62.766415 
	C284.902252,62.135216 286.303711,62.888279 286.430695,63.266293 
	C287.434052,66.252258 287.267609,69.243782 286.060272,72.250122 
	C285.239471,74.294006 284.674011,77.655373 282.950439,77.649834 
	C280.198242,77.640984 280.620667,73.927368 279.230560,71.583710 
z"/>
<path fill="#FFFFFF" opacity="1.000000" stroke="none" 
	d="
M277.504822,84.823715 
	C275.544373,85.663574 273.681580,87.012695 272.260986,85.450241 
	C271.043915,84.111610 271.064758,82.339729 271.720306,80.153664 
	C272.454254,77.706230 273.471161,75.482460 274.559570,72.946434 
	C276.549561,75.646820 277.009430,78.967308 279.519714,81.251892 
	C281.137665,82.724373 278.422180,83.480980 277.504822,84.823715 
z"/>
<path fill="#FFFFFF" opacity="1.000000" stroke="none" 
	d="
M369.238159,56.304901 
	C370.811035,56.209335 372.062805,53.779861 373.334045,55.915009 
	C374.329224,57.586449 372.226776,58.982597 371.800171,59.288208 
	C369.907654,60.644096 368.218750,62.565990 365.377075,62.985794 
	C366.300476,60.554272 365.238770,57.339809 369.238159,56.304901 
z"/>
</svg>