<?xml version="1.0" encoding="UTF-8"?>
<svg xmlns="http://www.w3.org/2000/svg" viewBox="0 0 623 99.39">
  <g id="_원본" data-name="원본">
    <g>
      <path d="m55.94.27c11.7,0,18.78,4.98,18.78,13.44,0,9.36-9.96,20.04-21.66,27.66,6.24,2.34,9.78,6.72,9.78,12.9,0,15.78-24.06,31.68-47.82,31.68-8.64,0-14.7-3.48-14.7-8.7,0-6.78,7.26-12.42,17.16-14.76,1.62-3.12,3.72-6.9,6.06-11.04-3.12-.36-4.98-1.56-5.34-3.78-.54-3.72,4.5-6.18,12-7.44,7.92-12.84,17.04-25.98,22.74-30.72.3-.24.66-.36,1.02-.36.84,0,1.56.72,1.56,1.56,0,.48-.24.9-.54,1.2-5.22,4.32-13.38,15.96-20.82,27.84,5.76-.54,10.86-.36,15.06.54,11.88-7.08,22.38-17.64,22.38-26.58,0-6.54-5.64-10.32-15.66-10.32-18.72,0-37.26,14.82-46.98,27.96-1.68,3.6-3.06,7.8-4.98,8.28-.72.18-1.8-.48-1.98-1.38-.18-.84.12-1.68.54-2.58.84-1.8,2.16-3.6,4.44-6.78C16.88,15.09,36.56.27,55.94.27Zm3.78,54c0-6.24-4.5-9.36-10.2-10.74-7.2,4.2-14.7,7.14-20.76,7.8-.6.06-1.14.12-1.68.12-2.16,3.78-4.14,7.32-5.76,10.38,3.42-.48,7.02-.54,10.68-.18.84.06,1.44.72,1.44,1.56s-.72,1.56-1.56,1.56h-.18c-4.2-.42-8.34-.24-12.12.54-1.08,2.1-1.86,3.84-2.28,4.98-.24.66-.84,1.08-1.5,1.08-.84,0-1.56-.72-1.56-1.56,0-.18.06-.36.12-.54.24-.78.72-1.8,1.26-3-7.14,2.22-12.18,6.36-12.18,10.98,0,3.18,4.74,5.58,11.58,5.58,21.96,0,44.7-14.7,44.7-28.56Zm-31.74-10.38c-4.2,1.02-6.84,2.34-6.66,3.3.06.72,1.44,1.2,3.96,1.2.9-1.44,1.8-3,2.7-4.5Zm16.74-1.14c-3.72-.3-7.62-.18-10.8.18-.66.06-1.26.12-1.86.24-1.02,1.68-2.04,3.3-3,4.98,4.68-.66,10.2-2.58,15.66-5.4Z" fill="#161616" stroke-width="0"/>
      <path d="m70.22,56.49c0-6,6.36-16.56,10.26-21.42.24-.36.72-.6,1.2-.6.84,0,1.56.72,1.56,1.56,0,.36-.12.72-.36.96-5.1,6.42-9.54,15.42-9.54,19.5,0,3.12,1.2,4.32,4.38,4.32,6.48,0,16.92-6.36,30.6-18.54.24-.24.6-.42,1.02-.42.84,0,1.56.72,1.56,1.56,0,.48-.18.9-.54,1.14-14.28,12.84-25.2,19.38-32.64,19.38-4.86,0-7.5-2.58-7.5-7.44Zm15.78-29.64c0-.36.18-.72.36-.96.6-.78,1.68-1.92,2.34-2.94.24-.36.72-.6,1.2-.6.84,0,1.56.72,1.56,1.56,0,.36-.12.72-.36,1.02-.72.9-1.68,2.1-2.28,2.88-.3.36-.78.6-1.26.6-.84,0-1.56-.72-1.56-1.56Z" fill="#161616" stroke-width="0"/>
      <path d="m97.52,61.59c-.9-.42-1.26-1.14-.9-2.04,2.82-7.74,10.68-21.18,14.22-25.5.3-.36.72-.6,1.2-.6.84,0,1.56.72,1.56,1.56,0,.36-.12.72-.36.96-1.68,2.1-4.5,6.48-7.56,11.88-1.38,2.4-.84,2.82,1.14.84,8.04-7.8,16.62-13.74,20.52-13.74,3,0,3.84,2.34,4.26,6.78.42,4.68,1.02,5.88,3.18,5.88,5.16,0,10.74-3.54,13.14-5.16.24-.18.54-.3.9-.3.84,0,1.56.72,1.56,1.56,0,.54-.3,1.02-.72,1.32-2.4,1.62-8.82,5.7-14.88,5.7-5.52,0-6-5.28-6.3-8.7-.3-3.36-.54-3.96-1.14-3.96-4.2,0-20.4,12.36-27.6,22.92-.54.84-1.2,1.02-2.1.66l-.12-.06Z" fill="#161616" stroke-width="0"/>
      <path d="m125.48,77.66c5.76-13.8,19.68-36.6,31.38-53.52-9.66,1.32-18.9,3-25.92,4.56-.12.06-.24.06-.36.06-.84,0-1.56-.72-1.56-1.56,0-.78.54-1.38,1.26-1.5,7.68-1.74,18.18-3.66,29.04-4.98,4.38-5.34,8.94-11.76,12.12-14.28.3-.24.66-.42,1.08-.42.84,0,1.56.72,1.56,1.56,0,.42-.18.84-.48,1.14-2.52,2.52-6.54,7.38-10.14,11.52,10.2-1.08,20.46-1.5,28.8-.72.84.06,1.44.72,1.44,1.56s-.72,1.56-1.56,1.56h-.18c-8.88-.84-20.04-.24-30.96,1.02-10.98,15.66-24.6,37.56-31.26,52.02.84.3,1.08,1.02.66,1.98-.96,2.22-2.4,4.44-3.84,4.44-2.1,0-2.04-2.16-1.08-4.44Z" fill="#161616" stroke-width="0"/>
      <path d="m156.86,64.29c-.42.9-.24,1.5.78.24.36-.42,1.98-2.4,2.82-3.48,2.46-3,5.16-6.48,7.98-9.78,8.58-9.96,14.16-14.52,18.12-14.52,2.88,0,4.32,2.04,4.32,5.4,0,2.34-.66,5.34-1.26,8.04-.54,2.52-1.02,4.74-1.02,6.3,0,3.12,1.2,4.32,3.78,4.32,5.7,0,18-9.48,28.2-18.54.24-.24.6-.42,1.02-.42.84,0,1.56.72,1.56,1.56,0,.48-.18.9-.54,1.14-14.1,12.6-24.9,19.38-30.24,19.38-4.26,0-6.9-2.58-6.9-7.44,0-1.92.54-4.5,1.14-6.96.54-2.7,1.14-5.34,1.14-7.38,0-1.86-.36-2.28-1.2-2.28-2.76,0-7.92,4.38-15.72,13.44-2.76,3.24-5.52,6.66-7.92,9.72-4.74,5.88-7.74,9.96-9.6,9.96-1.2,0-1.98-.96-1.98-2.22,0-7.14,24.42-45.18,38.58-61.32,1.74-2.1,3.3-3.72,4.68-5.04.78-.72,1.62-1.14,2.4-1.14.96,0,1.8.72,1.8,1.56,0,1.86-3.3,4.14-6.18,6.42-11.76,13.08-30.66,42.06-35.76,53.04Z" fill="#161616" stroke-width="0"/>
      <path d="m196.94,79.83c0-4.26,4.02-8.28,15.12-14.52.06-.18.12-.42.18-.66,4.2-19.56,6.24-31.38,14.58-31.38,2.82,0,5.4,1.38,7.8,4.08.24.24.36.6.36,1.02,0,.84-.72,1.56-1.56,1.56-.48,0-.9-.18-1.2-.54-1.8-2.1-3.48-3-5.4-3-5.52,0-7.2,8.64-11.1,26.94,4.32-2.34,9.54-4.92,15.78-7.98,9.3-4.5,18.54-8.94,25.02-13.26.3-.12.6-.24.9-.24.84,0,1.56.72,1.56,1.56,0,.54-.3,1.02-.72,1.32-6.72,4.38-16.14,8.94-25.38,13.44-7.5,3.6-13.44,6.66-18.06,9.18-2.82,11.58-6.9,16.98-13.08,16.98-2.82,0-4.8-1.8-4.8-4.5Zm14.1-10.32c-7.98,4.74-10.92,7.5-10.92,10.08,0,.9.42,1.86,1.92,1.86,3.66,0,6.66-3.84,9-11.94Z" fill="#161616" stroke-width="0"/>
      <path d="m233.9,77.66c5.76-13.8,19.68-36.6,31.38-53.52-9.66,1.32-18.9,3-25.92,4.56-.12.06-.24.06-.36.06-.84,0-1.56-.72-1.56-1.56,0-.78.54-1.38,1.26-1.5,7.68-1.74,18.18-3.66,29.04-4.98,4.38-5.34,8.94-11.76,12.12-14.28.3-.24.66-.42,1.08-.42.84,0,1.56.72,1.56,1.56,0,.42-.18.84-.48,1.14-2.52,2.52-6.54,7.38-10.14,11.52,10.2-1.08,20.46-1.5,28.8-.72.84.06,1.44.72,1.44,1.56s-.72,1.56-1.56,1.56h-.18c-8.88-.84-20.04-.24-30.96,1.02-10.98,15.66-24.6,37.56-31.26,52.02.84.3,1.08,1.02.66,1.98-.96,2.22-2.4,4.44-3.84,4.44-2.1,0-2.04-2.16-1.08-4.44Z" fill="#161616" stroke-width="0"/>
      <path d="m267.2,58.47c0-5.4,3-11.76,7.38-15.9.72-.72,1.32-.84,1.62-.48l.42.48c1.26-4.56,4.74-7.68,9.06-7.68,3.9,0,6.3,2.64,6.3,6.9,0,4.5-2.4,9.9-5.76,14.34.72.12,1.5.18,2.34.18,12.06,0,22.02-10.92,24.18-13.86.3-.36.72-.6,1.26-.6.84,0,1.56.72,1.56,1.56,0,.36-.12.66-.3.96-2.28,3-13.26,15.06-26.7,15.06-1.68,0-3.18-.24-4.56-.66-3.36,3.6-7.32,6.12-10.68,6.12-3.78,0-6.12-2.46-6.12-6.42Zm13.86-1.14c-3.18-2.16-4.98-5.94-4.98-10.8,0-.36,0-.72.06-1.08-3.48,3.54-5.82,8.7-5.82,13.02,0,2.28.96,3.3,3,3.3,2.34,0,5.16-1.8,7.74-4.44Zm7.8-15.54c0-2.58-1.08-3.78-3.18-3.78-3.72,0-6.48,3.66-6.48,8.52,0,3.96,1.38,6.84,3.96,8.4,3.24-4.02,5.7-9.18,5.7-13.14Z" fill="#161616" stroke-width="0"/>
      <path d="m316.46,33.57c.72-.84,1.68-1.38,2.64-1.38.78,0,1.56.48,1.56,1.32,0,1.86-3.06,4.68-5.64,7.26-4.44,6.06-8.04,11.58-10.32,15.72-1.08,1.98-.72,3.06,1.44,1.02,1.08-1.02,2.28-2.22,3.72-3.6,13.62-13.62,20.7-19.02,25.74-19.02,2.28,0,3.6,1.5,3.6,3.96s-1.32,6.36-2.64,9.96c-1.38,3.84-2.7,7.62-2.7,10.02,0,1.44.36,1.8,1.44,1.8,6.84,0,17.7-9.3,27.9-18.36.24-.24.6-.42,1.02-.42.84,0,1.56.72,1.56,1.56,0,.48-.18.9-.54,1.14-10.2,9.18-21.9,19.2-29.94,19.2-2.88,0-4.56-1.8-4.56-4.92s1.56-7.26,2.88-11.1c1.26-3.6,2.46-6.84,2.46-8.88,0-.9-.54-1.02-1.14-1.02-3.3,0-9.96,5.4-22.92,18.3-5.64,5.58-8.88,8.76-10.74,8.76-1.38,0-2.22-1.02-2.22-2.4,0-3.24,5.28-12.36,13.14-23.1,1.74-2.52,3.06-4.38,4.26-5.82Z" fill="#161616" stroke-width="0"/>
      <path d="m354.02,55.83c0-9.18,10.5-20.94,18.84-20.94,3.36,0,5.46,1.86,5.46,4.86s-6.54,10.98-19.44,9.72c-1.08,2.16-1.74,4.38-1.74,6.36,0,3.18,1.38,4.38,5.28,4.38,7.92,0,25.92-9.12,35.88-18,.24-.24.6-.36,1.02-.36.84,0,1.56.72,1.56,1.56,0,.48-.18.9-.54,1.2-11.34,9.48-29.22,18.72-37.92,18.72-5.58,0-8.4-2.46-8.4-7.5Zm21.18-16.08c0-1.2-.66-1.74-2.34-1.74-4.02,0-8.94,3.78-12.18,8.46,10.14.48,14.52-4.86,14.52-6.72Z" fill="#161616" stroke-width="0"/>
      <path d="m496.22,11.31c0-4.98-3.36-7.92-9.12-7.92-27.18,0-56.76,42.06-56.76,62.46,0,8.22,3.72,12.12,11.4,12.12,17.76,0,32.22-18.24,39.18-27.36.18-.24.36-.48.54-.72-10.68,1.92-23.28,2.16-31.56.96-.78-.12-1.38-.78-1.38-1.56,0-.84.72-1.56,1.56-1.56h.24c10.98,1.68,29.58.54,40.74-3.48.12-.06.36-.12.54-.12.84,0,1.56.72,1.56,1.56,0,.66-.42,1.26-1.08,1.5-1.74.6-3.72,1.2-5.82,1.68-.6.72-1.44,1.8-2.46,3.12l-.3.42c-3.6,5.1-6.36,11.4-6.36,14.88,0,3.12,1.2,4.32,4.38,4.32,6.66,0,18.36-9.36,36.48-29.22.3-.36.66-.54,1.14-.54.84,0,1.56.72,1.56,1.56,0,.42-.18.78-.42,1.02-18.84,20.76-30.9,30.3-38.76,30.3-4.86,0-7.5-2.58-7.5-7.44,0-1.26.24-2.76.72-4.38-8.1,8.82-19.62,18.18-33,18.18-9.48,0-14.52-5.34-14.52-15.24,0-21.36,31.14-65.58,59.88-65.58,7.44,0,12.24,4.32,12.24,11.04,0,7.26-5.58,15.6-13.08,21-4.08,2.94-8.16,5.34-9.78,4.44-.66-.36-1.14-1.5-.78-2.34.36-.84,1.08-1.38,1.98-1.8,1.8-.84,3.96-1.68,7.8-3.36,6.24-5.16,10.74-12.12,10.74-17.94Z" fill="#161616" stroke-width="0"/>
      <path d="m509.24,56.49c0-6,6.36-16.56,10.26-21.42.24-.36.72-.6,1.2-.6.84,0,1.56.72,1.56,1.56,0,.36-.12.72-.36.96-5.1,6.42-9.54,15.42-9.54,19.5,0,3.12,1.2,4.32,4.38,4.32,6.48,0,16.92-6.36,30.6-18.54.24-.24.6-.42,1.02-.42.84,0,1.56.72,1.56,1.56,0,.48-.18.9-.54,1.14-14.28,12.84-25.2,19.38-32.64,19.38-4.86,0-7.5-2.58-7.5-7.44Zm15.78-29.64c0-.36.18-.72.36-.96.6-.78,1.68-1.92,2.34-2.94.24-.36.72-.6,1.2-.6.84,0,1.56.72,1.56,1.56,0,.36-.12.72-.36,1.02-.72.9-1.68,2.1-2.28,2.88-.3.36-.78.6-1.26.6-.84,0-1.56-.72-1.56-1.56Z" fill="#161616" stroke-width="0"/>
      <path d="m521.54,94.04c0-5.76,4.02-16.68,10.08-28.98-.3-1.44-.54-2.82-.84-4.02-.06-.12-.06-.3-.06-.42,0-.84.72-1.56,1.56-1.56h.06c.78.06,1.56.06,2.28.06,13.68-26.04,34.68-55.5,46.02-55.5,2.46,0,4.14,1.56,4.14,3.9,0,7.68-16.62,23.94-37.92,37.62-.84.54-1.32.84-1.38.78l-.06-.06c-2.58,4.38-5.16,8.82-7.44,13.26,18.06-.66,30-8.64,39.24-16.86.24-.24.6-.42,1.02-.42.84,0,1.56.72,1.56,1.56,0,.48-.18.9-.54,1.14-9.6,8.64-22.98,17.52-42.96,17.7-.48,1.02-1.02,2.04-1.5,3.06.9,5.52,1.5,12.12,1.5,15.42,0,10.32-4.38,18.42-10.14,18.42-2.94,0-4.62-1.98-4.62-5.1Zm11.64-13.32c0-2.34-.3-6.3-.78-10.38-4.74,10.14-7.74,18.9-7.74,23.7,0,1.5.42,1.98,1.5,1.98,3.72,0,7.02-6.9,7.02-15.3Zm48.48-73.2c0-.54-.24-.78-1.02-.78-7.44,0-20.1,15.18-31.5,33.18,18.06-12.3,32.52-26.58,32.52-32.4Z" fill="#161616" stroke-width="0"/>
      <path d="m554.78,77.66c5.76-13.8,19.68-36.6,31.38-53.52-9.66,1.32-18.9,3-25.92,4.56-.12.06-.24.06-.36.06-.84,0-1.56-.72-1.56-1.56,0-.78.54-1.38,1.26-1.5,7.68-1.74,18.18-3.66,29.04-4.98,4.38-5.34,8.94-11.76,12.12-14.28.3-.24.66-.42,1.08-.42.84,0,1.56.72,1.56,1.56,0,.42-.18.84-.48,1.14-2.52,2.52-6.54,7.38-10.14,11.52,10.2-1.08,20.46-1.5,28.8-.72.84.06,1.44.72,1.44,1.56s-.72,1.56-1.56,1.56h-.18c-8.88-.84-20.04-.24-30.96,1.02-10.98,15.66-24.6,37.56-31.26,52.02.84.3,1.08,1.02.66,1.98-.96,2.22-2.4,4.44-3.84,4.44-2.1,0-2.04-2.16-1.08-4.44Z" fill="#161616" stroke-width="0"/>
    </g>
  </g>
  <g id="_펜툴작업" data-name="펜툴작업">
    <g>
      <path d="m3.44,38.01s6.15-16.7,28.14-28.92,37.46-7.79,40.23,0,.13,19.19-23.05,33.49-43.17,3.88-17.18-1.41,43.76,13.87,15.51,34.31c-18.52,13.4-44.52,9.4-45.52,3.4s8.02-17.4,30.01-15.7" fill="none" stroke="#161616" stroke-linecap="round" stroke-linejoin="round" stroke-width="3"/>
      <path d="m53.57,10.88s-17.69,17.26-37.85,58.63" fill="none" stroke="#161616" stroke-linecap="round" stroke-linejoin="round" stroke-width="3"/>
      <path d="m89.57,23.88s-1,2-2,3" fill="none" stroke="#161616" stroke-linecap="round" stroke-linejoin="round" stroke-width="3"/>
      <path d="m81.57,35.88s-15,20-8,25,23.67-5.7,35.84-17.35" fill="none" stroke="#161616" stroke-linecap="round" stroke-linejoin="round" stroke-width="3"/>
      <path d="m112.29,34.47s-12.72,19.41-13.72,25.41c0,0,19.94-23,29-23,4,0,.5,10.26,5.75,12.13s15.25-5.13,15.25-5.13" fill="none" stroke="#161616" stroke-linecap="round" stroke-linejoin="round" stroke-width="3"/>
      <path d="m130.57,26.88s40-8,61-6" fill="none" stroke="#161616" stroke-linecap="round" stroke-linejoin="round" stroke-width="3"/>
      <path d="m172.57,7.88s-34.08,36.24-46,72c-1,3,3-3,3-3" fill="none" stroke="#161616" stroke-linecap="round" stroke-linejoin="round" stroke-width="3"/>
      <path d="m196.94,4.55s-32.93,37.49-43.37,65.33c-3,8,25.22-33.23,33.68-31.38,6.32,1.38-5.48,20.27,2.92,23.33s31.4-17.94,31.4-17.94" fill="none" stroke="#161616" stroke-linecap="round" stroke-linejoin="round" stroke-width="3"/>
      <path d="m233.26,38.13s-4.45-4.23-8.07-3.24-7.25,4.87-11.62,29.99c-4,23-14.49,17.23-14.49,17.23,0,0-7.9-4.74,28.88-23.36,9.61-4.87,29.61-14.87,29.61-14.87" fill="none" stroke="#161616" stroke-linecap="round" stroke-linejoin="round" stroke-width="3"/>
      <path d="m280.44,7.88s-12.96,12.1-32.91,47.05-11.96,24.95-9.96,21.95" fill="none" stroke="#161616" stroke-linecap="round" stroke-linejoin="round" stroke-width="3"/>
      <path d="m238.57,26.88s33-7,62-6" fill="none" stroke="#161616" stroke-linecap="round" stroke-linejoin="round" stroke-width="3"/>
      <path d="m275.69,43.49s-12.12,13.39-4.12,19.39,20-18,19-23-7.02-3.74-9.51-1.87-8.3,15.27,5.51,19.87c6,2,22.85-6.01,26.93-15.01" fill="none" stroke="#161616" stroke-linecap="round" stroke-linejoin="round" stroke-width="3"/>
      <path d="m319.03,33.27s-14.15,17.84-17.73,28.5c-1.72,5.11,16.43-13.71,18.36-15.3s11.69-11.62,16.31-10.11-7.43,21.29-2.41,25.41,27.02-13.89,31.02-18.89" fill="none" stroke="#161616" stroke-linecap="round" stroke-linejoin="round" stroke-width="3"/>
      <path d="m357.7,47.96s17.04,1.95,18.88-9.08c1-6-23,2-21,17s34-3,44-13" fill="none" stroke="#161616" stroke-linecap="round" stroke-linejoin="round" stroke-width="3"/>
      <path d="m477.67,34.89s24.6-9.84,19.01-28.86c-2.1-7.15-24.1-6.15-39.1,8.85s-41,54-23,63c20,10,47.26-23.68,49.63-29.34" fill="none" stroke="#161616" stroke-linecap="round" stroke-linejoin="round" stroke-width="3"/>
      <path d="m450.46,49.25s28.11,3.63,41.11-3.37" fill="none" stroke="#161616" stroke-linecap="round" stroke-linejoin="round" stroke-width="3"/>
      <path d="m484.2,48.54s-16.57,21.1-3.63,24.34c12,3,38-29,38-29" fill="none" stroke="#161616" stroke-linecap="round" stroke-linejoin="round" stroke-width="3"/>
      <path d="m528.92,23.34s-1.35,2.54-2.35,3.54" fill="none" stroke="#161616" stroke-linecap="round" stroke-linejoin="round" stroke-width="3"/>
      <path d="m520.7,35.82s-15.13,19.05-8.13,25.05,24.81-8,35.91-17" fill="none" stroke="#161616" stroke-linecap="round" stroke-linejoin="round" stroke-width="3"/>
      <path d="m545.51,43.88s29.24-18.35,36.15-32.17-9.09-3.83-14.09,1.17-19.47,22.9-33.23,49.45-11.87,34.24-9.32,35.4,14.55-2.85,7.55-36.85c0,0,27,2,46-18" fill="none" stroke="#161616" stroke-linecap="round" stroke-linejoin="round" stroke-width="3"/>
      <path d="m560.12,26.88s37.45-8,60.45-6" fill="none" stroke="#161616" stroke-linecap="round" stroke-linejoin="round" stroke-width="3"/>
      <path d="m601.57,7.88s-12,12-25,34-29,48-18,35" fill="none" stroke="#161616" stroke-linecap="round" stroke-linejoin="round" stroke-width="3"/>
    </g>
  </g>
</svg>